<svg xmlns="http://www.w3.org/2000/svg" fill="none" viewBox="0 0 360 360"><title>Leaf branch</title><g id="ms-branch-tl"><path stroke="#4E7355" stroke-linecap="round" stroke-width="4" d="M0 0c90 60 150 150 230 300"/><g class="leaf"><path fill="#9CBE84" d="M34.913-3.924Q44.445 39.772.189 33.312-9.342-10.384 34.913-3.924"/><path stroke="#2F5740" stroke-width="1.5" d="M34.913-3.924.189 33.312"/></g><g class="leaf"><path fill="#9CBE84" d="M25.905 26.583q40.323-11.795 37.17 30.1-40.324 11.795-37.17-30.1"/><path stroke="#2F5740" stroke-width="1.5" d="m25.905 26.583 37.17 30.1"/></g><g class="leaf"><path fill="#9CBE84" d="M99.992 69.294Q97.46 108.515 61.64 92.338q2.534-39.22 38.352-23.044"/><path stroke="#2F5740" stroke-width="1.5" d="M99.992 69.294 61.64 92.338"/></g><g class="leaf"><path fill="#9CBE84" d="M107.358 124.107q30.928-19.556 38.345 16.276-30.927 19.556-38.345-16.276"/><path stroke="#2F5740" stroke-width="1.5" d="m107.358 124.107 38.345 16.276"/></g><g class="leaf"><path fill="#9CBE84" d="M200.261 190.927q-11.418 31.9-37.257 9.983 11.419-31.9 37.257-9.983"/><path stroke="#2F5740" stroke-width="1.5" d="m200.261 190.927-37.257 9.983"/></g><g class="leaf"><path fill="#9CBE84" d="M228.512 269.674Q249.245 246.4 263.733 274q-20.734 23.275-35.221-4.325"/><path stroke="#2F5740" stroke-width="1.5" d="M228.512 269.674 263.733 274"/></g></g></svg>