<svg xmlns="http://www.w3.org/2000/svg" fill="none" viewBox="0 0 360 360"><title>Leaf branch</title><g id="ms-branch-tr"><path stroke="#4E7355" stroke-linecap="round" stroke-width="4" d="M360 0c-90 60-150 150-230 300"/><g class="leaf"><path fill="#9CBE84" d="M325.087-3.924q44.255-6.46 34.724 37.236-44.255 6.46-34.724-37.236"/><path stroke="#2F5740" stroke-width="1.5" d="m325.087-3.924 34.724 37.236"/></g><g class="leaf"><path fill="#9CBE84" d="M334.095 26.583q3.154 41.895-37.17 30.1-3.153-41.895 37.17-30.1"/><path stroke="#2F5740" stroke-width="1.5" d="m334.095 26.583-37.17 30.1"/></g><g class="leaf"><path fill="#9CBE84" d="M260.008 69.294q35.819-16.176 38.352 23.044-35.82 16.177-38.352-23.044"/><path stroke="#2F5740" stroke-width="1.5" d="m260.008 69.294 38.352 23.044"/></g><g class="leaf"><path fill="#9CBE84" d="M252.642 124.107q-7.418 35.832-38.345 16.276 7.417-35.832 38.345-16.276"/><path stroke="#2F5740" stroke-width="1.5" d="m252.642 124.107-38.345 16.276"/></g><g class="leaf"><path fill="#9CBE84" d="M159.739 190.927q25.838-21.916 37.257 9.983-25.839 21.915-37.257-9.983"/><path stroke="#2F5740" stroke-width="1.5" d="m159.739 190.927 37.257 9.983"/></g><g class="leaf"><path fill="#9CBE84" d="M131.488 269.674q-14.487 27.6-35.221 4.325 14.487-27.6 35.221-4.325"/><path stroke="#2F5740" stroke-width="1.5" d="M131.488 269.674 96.267 274"/></g></g></svg>