<svg xmlns="http://www.w3.org/2000/svg" fill="none" viewBox="0 0 671 180"><title>happier future</title><path id="ms-script-happier-future" fill="none" stroke="currentColor" stroke-linecap="round" stroke-linejoin="round" stroke-width="7" d="M20 90c11.5-40 34.5-28 46 0 11.5 34 34.5 34 46 0 11.5-28 34.5-40 46 0 11.5 28 34.5 40 46 0 11.5-34 34.5-34 46 0 11.5 40 34.5 28 46 0 11.5-40 34.5-28 46 0h32.2c11.5-40 34.5-28 46 0 11.5 34 34.5 34 46 0 11.5-28 34.5-40 46 0 11.5 28 34.5 40 46 0 11.5-34 34.5-34 46 0 11.5 40 34.5 28 46 0"/></svg>