<svg xmlns="http://www.w3.org/2000/svg" fill="none" viewBox="0 0 1600 2000"><title>Profile silhouette</title><defs><mask id="ms-head-mask" maskUnits="userSpaceOnUse"><rect width="1600" height="2000" fill="#000"/><use fill="#fff" href="#ms-head-path"/></mask></defs><path id="ms-head-path" fill="#1E3A2B" d="M980 120c200 30 340 200 350 440 4 130-30 240-80 340 50 40 80 110 50 170s-120 80-180 100c-10 110 10 210 60 290-120 10-260 10-360 5-5-85-2-165-5-235-115-20-215-80-255-190s-20-220 30-300c-50-40-120-50-120-100 0-40 50-55 90-60-15-40-20-80 0-110-90-15-130-40-90-80 40-30 90-30 130-10 0-60 5-110 40-150 60-80 200-130 340-110"/></svg>