<svg xmlns="http://www.w3.org/2000/svg" fill="none" viewBox="0 0 1440 800"><title>World map</title><defs><pattern id="ms-dot-pattern" width="22" height="22" patternUnits="userSpaceOnUse"><circle id="ms-dot" cx="6" cy="6" r="3" fill="#7C9A6E"/></pattern></defs><g id="ms-world" fill="url(#ms-dot-pattern)"><path d="M120 150c100-40 240-30 300 30 50 50 20 140-60 170-110 30-220-10-250-80-20-40-20-90 10-120" data-continent="0"/><path d="M300 380c60-20 120 20 130 90 10 90-30 190-90 220-50 10-70-70-60-150 5-70 0-130 20-160" data-continent="1"/><path d="M560 160c100-30 200-10 240 50 30 50 0 120-80 140-100 20-180-20-190-90-5-50 0-80 30-100" data-continent="2"/><path d="M820 200c160-30 360-10 460 50 50 40 20 110-100 130-180 20-320-20-360-90q-22.5-60 0-90" data-continent="3"/><path d="M640 420c80-20 160 20 170 100 10 90-40 180-120 200-60 5-75-80-65-160 5-70 0-110 15-140" data-continent="4"/><path d="M1180 560c100-20 180 20 190 80s-40 100-120 100c-70 0-100-50-90-110 3-30 5-55 20-70" data-continent="5"/></g></svg>